# xmcd
#
# Track frame offsets:
#	150
#	12057
#	23610
#	35408
#	49216
#	60882
#	77968
#	94278
#	112719
#	123310
#	135776
#	153906
#	168049
#	180354
#	192894
#	209934
#	221516
#	235200
#	248083
#	258468
#	269654
#	284018
#	308153
#	321561
#
# Disc length: 4460 seconds
#
# Revision: 8
# Processed by: cddbd v1.5.2PL0 Copyright (c) Steve Scherf et al.
# Submitted via: EasyCDDAExtractor 10.0.5.1
#
DISCID=4a116a18
DTITLE=Johnny Cash - The Man In Black: The Definitive Collection
DYEAR=1994
DGENRE=country
TTITLE0=Ring Of Fire
TTITLE1=I Walk The Line
TTITLE2=Get Rhythm (Live)
TTITLE3=It Ain't Me Babe
TTITLE4=I Still Miss Someone
TTITLE5=(Ghost) Riders In The Sky
TTITLE6=The Baron
TTITLE7=Sunday Morning Coming Down
TTITLE8=Daddy Sang Bass
TTITLE9=Jackson (With June Carter)
TTITLE10=One Piece At A Time
TTITLE11=Orange Blossom Special
TTITLE12=Folsom Prison Blues (Live)
TTITLE13=San Quentin (Live)
TTITLE14=A Boy Named Sue (Live)
TTITLE15=A Thing Called Love
TTITLE16=Don't Take Your Guns To Town
TTITLE17=Wanted Man
TTITLE18=Big River
TTITLE19=Without Love
TTITLE20=No Expectations
TTITLE21=Highway Patrolman
TTITLE22=Singin' In Vietnam Talkin' Blues
TTITLE23=Man In Black
EXTD=
EXTT0=
EXTT1=
EXTT2=
EXTT3=
EXTT4=
EXTT5=
EXTT6=
EXTT7=
EXTT8=
EXTT9=
EXTT10=
EXTT11=
EXTT12=
EXTT13=
EXTT14=
EXTT15=
EXTT16=
EXTT17=
EXTT18=
EXTT19=
EXTT20=
EXTT21=
EXTT22=
EXTT23=
PLAYORDER=
